<svg width="24" height="24" viewBox="0 0 24 24" fill="none" xmlns="http://www.w3.org/2000/svg">
<rect width="24" height="24" rx="12" fill="#F0EFF5"/>
<path d="M10 2.8C10 2.35817 10.3582 2 10.8 2H13.2C13.6418 2 14 2.35817 14 2.8V5.2C14 5.64183 13.6418 6 13.2 6H10.8C10.3582 6 10 5.64183 10 5.2V2.8Z" fill="url(#paint0_angular_96_10069)"/>
<path d="M10 12C10 10.8954 10.8954 10 12 10C13.1046 10 14 10.8954 14 12C14 13.1046 13.1046 14 12 14C10.8954 14 10 13.1046 10 12Z" fill="url(#paint1_angular_96_10069)"/>
<path d="M10.8 18C10.3582 18 10 18.3582 10 18.8V21.2C10 21.6418 10.3582 22 10.8 22H13.2C13.6418 22 14 21.6418 14 21.2V18.8C14 18.3582 13.6418 18 13.2 18H10.8Z" fill="url(#paint2_angular_96_10069)"/>
<path d="M6 6.8C6 6.35817 6.35817 6 6.8 6H9.2C9.64183 6 10 6.35817 10 6.8V9.2C10 9.64183 9.64183 10 9.2 10H6.8C6.35817 10 6 9.64183 6 9.2V6.8Z" fill="url(#paint3_angular_96_10069)"/>
<path d="M8 14C6.89543 14 6 14.8954 6 16C6 17.1046 6.89543 18 8 18C9.10457 18 10 17.1046 10 16C10 14.8954 9.10457 14 8 14Z" fill="url(#paint4_angular_96_10069)"/>
<path d="M14 8C14 6.89543 14.8954 6 16 6C17.1046 6 18 6.89543 18 8C18 9.10457 17.1046 10 16 10C14.8954 10 14 9.10457 14 8Z" fill="url(#paint5_angular_96_10069)"/>
<path d="M14.8 14C14.3582 14 14 14.3582 14 14.8V17.2C14 17.6418 14.3582 18 14.8 18H17.2C17.6418 18 18 17.6418 18 17.2V14.8C18 14.3582 17.6418 14 17.2 14H14.8Z" fill="url(#paint6_angular_96_10069)"/>
<defs>
<radialGradient id="paint0_angular_96_10069" cx="0" cy="0" r="1" gradientUnits="userSpaceOnUse" gradientTransform="translate(12 12) scale(16.78 10.068)">
<stop offset="0.249782" stop-color="#2E9BFF"/>
<stop offset="0.75055" stop-color="#FF4848"/>
</radialGradient>
<radialGradient id="paint1_angular_96_10069" cx="0" cy="0" r="1" gradientUnits="userSpaceOnUse" gradientTransform="translate(12 12) scale(16.78 10.068)">
<stop offset="0.249782" stop-color="#2E9BFF"/>
<stop offset="0.75055" stop-color="#FF4848"/>
</radialGradient>
<radialGradient id="paint2_angular_96_10069" cx="0" cy="0" r="1" gradientUnits="userSpaceOnUse" gradientTransform="translate(12 12) scale(16.78 10.068)">
<stop offset="0.249782" stop-color="#2E9BFF"/>
<stop offset="0.75055" stop-color="#FF4848"/>
</radialGradient>
<radialGradient id="paint3_angular_96_10069" cx="0" cy="0" r="1" gradientUnits="userSpaceOnUse" gradientTransform="translate(12 12) scale(16.78 10.068)">
<stop offset="0.249782" stop-color="#2E9BFF"/>
<stop offset="0.75055" stop-color="#FF4848"/>
</radialGradient>
<radialGradient id="paint4_angular_96_10069" cx="0" cy="0" r="1" gradientUnits="userSpaceOnUse" gradientTransform="translate(12 12) scale(16.78 10.068)">
<stop offset="0.249782" stop-color="#2E9BFF"/>
<stop offset="0.75055" stop-color="#FF4848"/>
</radialGradient>
<radialGradient id="paint5_angular_96_10069" cx="0" cy="0" r="1" gradientUnits="userSpaceOnUse" gradientTransform="translate(12 12) scale(16.78 10.068)">
<stop offset="0.249782" stop-color="#2E9BFF"/>
<stop offset="0.75055" stop-color="#FF4848"/>
</radialGradient>
<radialGradient id="paint6_angular_96_10069" cx="0" cy="0" r="1" gradientUnits="userSpaceOnUse" gradientTransform="translate(12 12) scale(16.78 10.068)">
<stop offset="0.249782" stop-color="#2E9BFF"/>
<stop offset="0.75055" stop-color="#FF4848"/>
</radialGradient>
</defs>
</svg>
