<svg width="24" height="24" viewBox="0 0 24 24" fill="none" xmlns="http://www.w3.org/2000/svg">
<path d="M19.6732 2.94971H4.28212C2.73762 2.94971 1.48438 4.20426 1.48438 5.75021V14.9149C1.48438 16.458 2.7376 17.7112 4.28212 17.7112H12.16C12.16 17.7112 15.4188 20.3639 15.861 20.7095C16.3031 21.0535 16.4817 20.9759 16.4758 20.7095C16.4714 20.443 16.4728 17.7112 16.4728 17.7112H19.6732C21.2207 17.7112 22.4724 16.458 22.4724 14.9149V5.75021C22.4724 4.20424 21.2207 2.94971 19.6732 2.94971ZM7.48098 11.9444C6.65381 11.9444 5.98188 11.2754 5.98188 10.4453C5.98188 9.61527 6.65381 8.94619 7.48098 8.94619C8.30815 8.94619 8.98013 9.61529 8.98013 10.4453C8.98013 11.2754 8.30817 11.9444 7.48098 11.9444ZM11.9784 11.9444C11.1512 11.9444 10.4793 11.2754 10.4793 10.4453C10.4793 9.61527 11.1512 8.94619 11.9784 8.94619C12.8056 8.94619 13.4776 9.61529 13.4776 10.4453C13.4776 11.2754 12.8056 11.9444 11.9784 11.9444ZM16.4758 11.9444C15.6487 11.9444 14.9767 11.2754 14.9767 10.4453C14.9767 9.61527 15.6487 8.94619 16.4758 8.94619C17.303 8.94619 17.975 9.61529 17.975 10.4453C17.975 11.2754 17.303 11.9444 16.4758 11.9444Z" fill="#1E2329"/>
</svg>
