<svg width="24" height="24" viewBox="0 0 24 24" fill="none" xmlns="http://www.w3.org/2000/svg">
<path d="M13.9383 3.3539C13.9383 2.32499 13.0758 1.48593 12.0117 1.48593C10.95 1.48593 10.0852 2.32265 10.0852 3.3539C10.0852 3.45937 10.0945 3.56249 10.1109 3.66328C7.45078 4.56093 5.26641 7.32187 5.26641 10.5867V13.1555C5.26641 13.1555 5.26641 16.8562 4.32891 16.8891C3.76875 16.8891 3.33984 17.3062 3.33984 17.8219C3.33984 18.3398 3.77109 18.7547 4.30313 18.7547H19.7203C20.2547 18.7547 20.6836 18.3375 20.6836 17.8219C20.6836 17.3016 20.2523 16.8891 19.7203 16.8891C18.757 16.8891 18.757 13.1812 18.757 13.1812V10.5844C18.757 7.31718 16.7156 4.55624 13.9125 3.65859C13.9289 3.56015 13.9383 3.45703 13.9383 3.3539ZM14.9016 19.6852C14.8992 21.2344 13.6172 22.4859 12.0117 22.4859C10.418 22.4859 9.12422 21.2367 9.12188 19.6852" fill="#1E2329"/>
</svg>
