<svg width="29" height="28" viewBox="0 0 29 28" fill="none" xmlns="http://www.w3.org/2000/svg">
<g clip-path="url(#clip0_123_15677)">
<path d="M14.919 23.6024L14.9196 23.6019L25.643 12.9624C25.643 12.9624 25.6431 12.9624 25.6431 12.9624C26.2969 12.3085 26.7803 11.5801 27.0963 10.7767C27.414 9.96889 27.5724 9.13969 27.5724 8.28785C27.5724 7.43601 27.414 6.60681 27.0963 5.79904C26.7803 4.99558 26.2969 4.26712 25.643 3.61327C24.9894 2.95964 24.2816 2.50129 23.5199 2.23245C22.7517 1.96131 21.9716 1.85328 21.178 1.90738C20.3839 1.96153 19.6013 2.17362 18.8293 2.54599C18.0577 2.91816 17.3432 3.43189 16.6859 4.08927L16.6856 4.08952L8.87385 11.8733L8.8736 11.8735M14.919 23.6024L7.78043 12.6838C8.00443 12.4412 8.21443 12.2265 8.41043 12.0398C8.60643 11.8532 8.71377 11.7505 8.73243 11.7318L8.8736 11.8735M14.919 23.6024C14.266 24.2555 13.4605 24.8025 12.4993 25.242C11.5415 25.6798 10.5291 25.9353 9.46079 26.0083C8.39682 26.0811 7.30727 25.9359 6.19074 25.5698C5.08597 25.2076 4.05757 24.5541 3.10585 23.6024C2.17243 22.669 1.52813 21.6634 1.16601 20.5861C0.800508 19.4988 0.655188 18.419 0.727974 17.3454C0.801087 16.267 1.05219 15.2544 1.48069 14.3062C1.91053 13.3551 2.45265 12.5546 3.1055 11.9016M14.919 23.6024L3.1055 11.9016M8.8736 11.8735C8.85206 11.895 8.74205 12.0002 8.54836 12.1847C8.35606 12.3678 8.14909 12.5793 7.92739 12.8195L7.92665 12.8203C7.66342 13.1023 7.36311 13.412 7.02585 13.7493L7.02386 13.7513L7.02385 13.7512C6.36552 14.3913 5.93396 15.011 5.71415 15.6089C5.48854 16.2225 5.39686 16.7916 5.43199 17.3185C5.46753 17.8516 5.60483 18.3368 5.84241 18.7768C6.08637 19.2286 6.35873 19.593 6.65751 19.8742L6.65837 19.875C7.0384 20.237 7.45426 20.5443 7.90615 20.7973C8.34564 21.0435 8.81968 21.1797 9.33076 21.2061C9.83555 21.2322 10.3838 21.1239 10.9783 20.8717C11.563 20.6237 12.1861 20.1753 12.847 19.5144L12.8477 19.5137L21.639 10.8064C21.6391 10.8063 21.6392 10.8063 21.6393 10.8062C21.7351 10.7102 21.783 10.5509 21.7001 10.2608C21.6124 9.9536 21.4948 9.7411 21.359 9.60527C21.2248 9.47103 21.0144 9.35818 20.7086 9.27955C20.4186 9.20498 20.2563 9.25482 20.1579 9.35327L20.1574 9.35372L11.3939 18.0613C11.3937 18.0614 11.3936 18.0616 11.3934 18.0617C11.0228 18.4321 10.5471 18.6541 9.97823 18.7339C9.37844 18.8181 8.8459 18.6242 8.39501 18.1733C8.01856 17.7968 7.82862 17.3162 7.81846 16.7474C7.808 16.1616 8.04603 15.6354 8.50701 15.1744L8.50742 15.174L18.167 5.57043M8.8736 11.8735L18.167 5.57043M3.1055 11.9016C3.10562 11.9015 3.10574 11.9014 3.10585 11.9013L12.6252 2.4659L12.6259 2.46527C12.7243 2.36682 12.8866 2.31698 13.1766 2.39155C13.4793 2.46937 13.6884 2.58072 13.8229 2.71314C13.9431 2.85039 14.0522 3.06487 14.1401 3.37279C14.223 3.66283 14.1751 3.82209 14.0793 3.91811C14.0792 3.91822 14.0791 3.91832 14.079 3.91843L4.58764 13.3258L4.58701 13.3264C4.067 13.8464 3.63464 14.4522 3.28955 15.1424C2.94161 15.8383 2.73883 16.5824 2.68097 17.3733C2.62277 18.1686 2.73952 18.9711 3.02808 19.7791C3.32011 20.5968 3.84291 21.3772 4.58701 22.1213C5.25972 22.794 6.00873 23.2736 6.83385 23.5551C7.65009 23.8336 8.46469 23.9498 9.27632 23.9015C10.0825 23.8535 10.8514 23.6758 11.582 23.3682C12.3132 23.0603 12.9419 22.6451 13.4655 22.1216C13.4656 22.1215 13.4657 22.1214 13.4659 22.1213L24.1613 11.5098L24.1619 11.5093C24.6809 10.9902 25.0576 10.4453 25.2843 9.87357C25.5078 9.31001 25.6162 8.74716 25.6064 8.18634C25.5965 7.62401 25.4632 7.07772 25.2086 6.54909C24.9554 6.02315 24.6057 5.53831 24.1619 5.09443L24.1619 5.09442L24.1602 5.09277C23.3232 4.27525 22.3702 3.88048 21.3091 3.93007C20.2431 3.97988 19.1956 4.54196 18.1674 5.57002C18.1673 5.57015 18.1671 5.57029 18.167 5.57043M3.1055 11.9016L18.167 5.57043" fill="#1E2329" stroke="white" stroke-width="0.4"/>
</g>
<defs>
<clipPath id="clip0_123_15677">
<rect width="28" height="28" fill="white" transform="translate(0.5)"/>
</clipPath>
</defs>
</svg>
