<svg width="32" height="32" viewBox="0 0 32 32" fill="none" xmlns="http://www.w3.org/2000/svg">
<path d="M16 0L19.2 3.2L16 6.4L14.4 4.8L12.8 3.2L16 0Z" fill="#FCD535"/>
<path d="M16 6.4L19.2 3.2L25.6 9.6L22.4 12.8L16 6.4Z" fill="#FCD535"/>
<path d="M6.4 16L3.2 12.8L12.8 3.2L14.4 4.8L16 6.4L6.4 16Z" fill="#FCD535"/>
<path d="M6.4 16L3.2 19.2L0 16L3.2 12.8L6.4 16Z" fill="#FCD535"/>
<path d="M19.2 16L16 19.2L12.8 16L16 12.8L19.2 16Z" fill="#FCD535"/>
<path d="M9.6 19.2L6.4 22.4L16 32L32 16L28.8 12.8L16 25.6L9.6 19.2Z" fill="#FCD535"/>
</svg>
