<svg width="25" height="24" viewBox="0 0 25 24" fill="none" xmlns="http://www.w3.org/2000/svg">
<path d="M16.3002 20.6L14.0002 18.2C17.0002 17.8 19.4002 15.3 19.4002 12.3C19.4002 9.4 17.2002 6.9 14.3002 6.4L12.2002 4.3H13.1002C17.7002 4.3 21.4002 7.9 21.4002 12.3C21.4002 15.3 19.6002 18 17.1002 19.3V21.3L16.3002 20.6ZM14.1002 20.2C13.8002 20.2 13.4002 20.3 13.0002 20.3C8.40019 20.3 4.7002 16.7 4.7002 12.3C4.7002 9.3 6.5002 6.6 9.0002 5.3V3L10.3002 4.3L12.3002 6.3C9.2002 6.6 6.8002 9.2 6.8002 12.3C6.8002 15.3 9.1002 17.8 12.1002 18.2L14.1002 20.2Z" fill="#1E2329"/>
</svg>
