<svg width="29" height="28" viewBox="0 0 29 28" fill="none" xmlns="http://www.w3.org/2000/svg">
<g clip-path="url(#clip0_123_15679)">
<path d="M14.4995 1.17681C11.5413 1.17882 8.67469 2.20327 6.38529 4.07666C4.09581 5.95012 2.5243 8.55739 1.93697 11.4568C1.34965 14.3562 1.78262 17.3695 3.16255 19.9863C4.54248 22.6031 6.78451 24.6624 9.50887 25.8154L9.50919 25.8155C12.6429 27.1392 16.1741 27.1638 19.326 25.8839C22.4778 24.604 24.9922 22.1245 26.3158 18.9908C27.6395 15.857 27.6641 12.3258 26.3842 9.17399C25.1043 6.02213 22.6248 3.5078 19.491 2.18413C17.9119 1.516 16.2141 1.17339 14.4995 1.17681ZM14.4995 1.17681C14.4993 1.17681 14.4992 1.17681 14.4991 1.17681L14.5001 1.67681L14.4998 1.17681C14.4997 1.17681 14.4996 1.17681 14.4995 1.17681ZM14.5011 27.4998H14.5004C11.3859 27.498 8.36776 26.4196 5.95729 24.4473C3.54681 22.4751 1.89222 19.7302 1.27378 16.6777C0.655354 13.6252 1.11112 10.4527 2.56386 7.69778C4.01646 4.94312 6.37654 2.7752 9.24435 1.56121C12.5406 0.181572 16.2494 0.164708 19.5581 1.51435C22.8671 2.86411 25.5061 5.47054 26.8969 8.76253C28.2876 12.0545 28.3167 15.7636 26.9777 19.077C25.6389 22.3902 23.0412 25.0376 19.754 26.4391C18.0922 27.1425 16.3056 27.5033 14.5011 27.4998Z" fill="#1E2329" stroke="#1E2329"/>
<path d="M8.78417 9.79331C8.57783 9.58697 8.46191 9.30712 8.46191 9.01531C8.46191 8.7235 8.57783 8.44364 8.78417 8.2373C8.99051 8.03096 9.27037 7.91504 9.56218 7.91504C9.85399 7.91504 10.1338 8.03096 10.3402 8.2373C10.5465 8.44364 10.6624 8.7235 10.6624 9.01531C10.6624 9.30712 10.5465 9.58697 10.3402 9.79331C10.1338 9.99965 9.85399 10.1156 9.56218 10.1156C9.27037 10.1156 8.99051 9.99965 8.78417 9.79331Z" fill="#1E2329" stroke="#1E2329"/>
<path d="M18.6416 9.79331C18.4353 9.58697 18.3193 9.30711 18.3193 9.01531C18.3193 8.7235 18.4353 8.44364 18.6416 8.2373C18.8479 8.03096 19.1278 7.91504 19.4196 7.91504C19.7114 7.91504 19.9913 8.03096 20.1976 8.2373C20.404 8.44364 20.5199 8.7235 20.5199 9.01531C20.5199 9.30712 20.404 9.58697 20.1976 9.79331C19.9913 9.99965 19.7114 10.1156 19.4196 10.1156C19.1278 10.1156 18.8479 9.99965 18.6416 9.79331Z" fill="#1E2329" stroke="#1E2329"/>
<path d="M14.5024 23.5892H14.5017C13.2408 23.5901 11.9921 23.3424 10.8271 22.8604C9.66199 22.3783 8.6034 21.6712 7.71184 20.7797C6.82027 19.8881 6.11323 18.8295 5.63115 17.6645C5.14907 16.4994 4.90141 15.2507 4.90235 13.9898V13.9895C4.90235 13.8871 4.94301 13.7889 5.01539 13.7166C5.08777 13.6442 5.18594 13.6035 5.28831 13.6035C5.39067 13.6035 5.48884 13.6442 5.56122 13.7166C5.63361 13.7889 5.67427 13.8871 5.67427 13.9895C5.67427 16.3307 6.60433 18.5761 8.25986 20.2316C9.91539 21.8872 12.1608 22.8172 14.502 22.8172C16.8433 22.8172 19.0887 21.8872 20.7442 20.2316C22.3997 18.5761 23.3298 16.3307 23.3298 13.9895C23.3298 13.8871 23.3704 13.7889 23.4428 13.7166C23.5152 13.6442 23.6134 13.6035 23.7157 13.6035C23.8181 13.6035 23.9163 13.6442 23.9887 13.7166C24.061 13.7889 24.1017 13.8871 24.1017 13.9895V13.9899C24.1027 15.2508 23.8551 16.4995 23.3731 17.6645C22.891 18.8296 22.184 19.8883 21.2924 20.7798C20.4008 21.6714 19.3422 22.3784 18.1771 22.8605C17.012 23.3426 15.7633 23.5902 14.5024 23.5892Z" fill="#1E2329" stroke="#1E2329"/>
</g>
<defs>
<clipPath id="clip0_123_15679">
<rect width="28" height="28" fill="white" transform="translate(0.5)"/>
</clipPath>
</defs>
</svg>
